<?xml version="1.0" standalone="no"?>
<!DOCTYPE svg PUBLIC "-//W3C//DTD SVG 20010904//EN"
 "http://www.w3.org/TR/2001/REC-SVG-20010904/DTD/svg10.dtd">
<svg version="1.0" xmlns="http://www.w3.org/2000/svg"
 width="320.000000pt" height="320.000000pt" viewBox="0 0 320.000000 320.000000"
 preserveAspectRatio="xMidYMid meet">
<metadata>
Created by potrace 1.14, written by Peter Selinger 2001-2017
</metadata>
<g transform="translate(0.000000,320.000000) scale(0.100000,-0.100000)"
fill="#000000" stroke="none">
<path d="M1634 2785 c-2 -5 -2 -103 -1 -218 l2 -207 -35 5 c-19 3 -102 24
-185 46 -164 45 -158 44 -231 54 -88 12 -146 12 -219 -1 -254 -44 -465 -187
-613 -414 -89 -137 -111 -231 -76 -319 13 -32 41 -60 49 -49 1 2 15 23 32 48
173 255 345 185 468 -190 52 -160 91 -227 190 -326 63 -64 166 -136 250 -175
28 -13 52 -23 55 -24 3 0 10 -3 15 -7 18 -11 210 -66 256 -73 43 -6 44 -7 44
-46 l0 -39 -40 5 c-22 2 -75 7 -119 10 -45 4 -105 16 -142 30 l-64 24 -15 -32
c-46 -94 -193 -204 -358 -268 -72 -28 -117 -49 -117 -55 0 -3 21 -3 48 1 26 3
65 7 87 10 197 22 501 130 673 239 l40 25 3 -37 c2 -20 2 -53 -1 -73 -7 -53
-77 -107 -232 -182 -71 -34 -128 -64 -128 -68 0 -4 19 -3 43 2 23 4 83 16 132
25 50 9 113 25 140 34 l50 17 -1 -76 -2 -76 649 0 c356 1 651 4 655 8 11 11
11 2368 0 2374 -17 11 -1298 9 -1302 -2z m-275 -665 c47 -17 94 -32 104 -35
10 -2 26 -6 35 -9 9 -3 42 -8 72 -11 30 -3 56 -8 59 -10 2 -3 4 -195 5 -429 1
-307 -2 -422 -10 -419 -20 7 -63 106 -74 168 -5 33 -12 101 -15 150 -6 106
-14 206 -20 255 -20 160 -90 268 -198 308 -57 22 -182 27 -254 12 -21 -4 -56
-11 -78 -15 l-40 -7 25 20 c25 19 103 48 150 54 61 9 158 -4 239 -32z"/>
</g>
</svg>
